<?xml version="1.0" encoding="UTF-8" standalone="no"?>
<!-- Created with Inkscape (http://www.inkscape.org/) -->

<svg
   xmlns:dc="http://purl.org/dc/elements/1.1/"
   xmlns:cc="http://creativecommons.org/ns#"
   xmlns:rdf="http://www.w3.org/1999/02/22-rdf-syntax-ns#"
   xmlns:svg="http://www.w3.org/2000/svg"
   xmlns="http://www.w3.org/2000/svg"
   xmlns:sodipodi="http://sodipodi.sourceforge.net/DTD/sodipodi-0.dtd"
   xmlns:inkscape="http://www.inkscape.org/namespaces/inkscape"
   width="441.14285"
   height="523.21429"
   id="svg2"
   version="1.1"
   inkscape:version="0.48.2 r9819"
   sodipodi:docname="keyboard.svg">
  <defs
     id="defs4" />
  <sodipodi:namedview
     id="base"
     pagecolor="#ffffff"
     bordercolor="#666666"
     borderopacity="1.0"
     inkscape:pageopacity="0.0"
     inkscape:pageshadow="2"
     inkscape:zoom="1.4"
     inkscape:cx="380.53755"
     inkscape:cy="210.23698"
     inkscape:document-units="px"
     inkscape:current-layer="layer1"
     showgrid="false"
     inkscape:window-width="1760"
     inkscape:window-height="1181"
     inkscape:window-x="0"
     inkscape:window-y="0"
     inkscape:window-maximized="0"
     fit-margin-top="10"
     fit-margin-left="10"
     fit-margin-right="10"
     fit-margin-bottom="10" />
  <metadata
     id="metadata7">
    <rdf:RDF>
      <cc:Work
         rdf:about="">
        <dc:format>image/svg+xml</dc:format>
        <dc:type
           rdf:resource="http://purl.org/dc/dcmitype/StillImage" />
        <dc:title />
      </cc:Work>
    </rdf:RDF>
  </metadata>
  <g
     inkscape:label="Layer 1"
     inkscape:groupmode="layer"
     id="layer1"
     transform="translate(-157.04446,-30.505039)">
    <path
       style="fill:#c8c8c8;fill-opacity:1;stroke:none"
       d="m 429.18732,352.29076 0,96.42857 86.42857,0 c 0,0 -0.8201,-29.33815 -0.71429,-52.85714 0.10581,-23.51899 -24.99999,-43.57142 -42.14285,-44.28571 -17.14286,-0.71429 -43.57143,0.71428 -43.57143,0.71428 z"
       id="path3863"
       inkscape:connector-curvature="0"
       sodipodi:nodetypes="ccczzc" />
    <path
       style="fill:#9f9f9f;fill-opacity:1;stroke:#c8c8c8;stroke-width:2;stroke-miterlimit:4;stroke-opacity:0.99555556;stroke-dasharray:none"
       d="m 181.42857,189.50504 c 0,0 35.2381,-4 52.85714,-4 17.61905,0 52.85715,4 52.85715,4 0,0 4,35.23809 4,52.85714 0,17.61905 -4,52.85715 -4,52.85715 0,0 -35.2381,4 -52.85715,4 -17.61904,0 -52.85714,-4 -52.85714,-4 0,0 -4,-35.2381 -4,-52.85715 0,-17.61904 4,-52.85714 4,-52.85714 z"
       id="rect2985"
       inkscape:connector-curvature="0"
       sodipodi:nodetypes="czczczczc" />
    <path
       style="fill:#ffffff;fill-opacity:1;stroke:#c8c8c8;stroke-width:1px;stroke-linecap:butt;stroke-linejoin:miter;stroke-opacity:1"
       d="m 263.71428,238.07647 -41,0 0,-16.42857 -19.14286,21.92857 19.14286,22.35714 0,-15.85714 41,0 z"
       id="path3756"
       inkscape:connector-curvature="0"
       sodipodi:nodetypes="cccccccc" />
    <path
       sodipodi:nodetypes="czczczczc"
       inkscape:connector-curvature="0"
       id="path3758"
       d="m 325.42857,189.50504 c 0,0 35.2381,-4 52.85714,-4 17.61905,0 52.85715,4 52.85715,4 0,0 4,35.23809 4,52.85714 0,17.61905 -4,52.85715 -4,52.85715 0,0 -35.2381,4 -52.85715,4 -17.61904,0 -52.85714,-4 -52.85714,-4 0,0 -4,-35.2381 -4,-52.85715 0,-17.61904 4,-52.85714 4,-52.85714 z"
       style="fill:#9f9f9f;fill-opacity:1;stroke:#c8c8c8;stroke-width:2;stroke-miterlimit:4;stroke-opacity:0.99555556;stroke-dasharray:none" />
    <path
       style="fill:#9f9f9f;fill-opacity:1;stroke:#c8c8c8;stroke-width:2;stroke-miterlimit:4;stroke-opacity:0.99555556;stroke-dasharray:none"
       d="m 469.42857,189.50504 c 0,0 35.2381,-4 52.85714,-4 17.61905,0 52.85715,4 52.85715,4 0,0 4,35.23809 4,52.85714 0,17.61905 -4,52.85715 -4,52.85715 0,0 -35.2381,4 -52.85715,4 -17.61904,0 -52.85714,-4 -52.85714,-4 0,0 -4,-35.2381 -4,-52.85715 0,-17.61904 4,-52.85714 4,-52.85714 z"
       id="path3760"
       inkscape:connector-curvature="0"
       sodipodi:nodetypes="czczczczc" />
    <path
       style="fill:#9f9f9f;fill-opacity:1;stroke:#c8c8c8;stroke-width:2;stroke-miterlimit:4;stroke-opacity:0.99555556;stroke-dasharray:none"
       d="m 325.42857,45.505039 c 0,0 35.2381,-4 52.85714,-4 17.61905,0 52.85715,4 52.85715,4 0,0 4,35.23809 4,52.85714 0,17.619051 -4,52.857151 -4,52.857151 0,0 -35.2381,4 -52.85715,4 -17.61904,0 -52.85714,-4 -52.85714,-4 0,0 -4,-35.2381 -4,-52.857151 0,-17.61904 4,-52.85714 4,-52.85714 z"
       id="path3762"
       inkscape:connector-curvature="0"
       sodipodi:nodetypes="czczczczc" />
    <path
       sodipodi:nodetypes="cccccccc"
       inkscape:connector-curvature="0"
       id="path3764"
       d="m 371.92857,213.71932 0,41 -16.42857,0 21.92857,19.14286 22.35714,-19.14286 -15.85714,0 0,-41 z"
       style="fill:#ffffff;fill-opacity:1;stroke:#c8c8c8;stroke-width:1px;stroke-linecap:butt;stroke-linejoin:miter;stroke-opacity:1" />
    <path
       style="fill:#ffffff;fill-opacity:1;stroke:#c8c8c8;stroke-width:1px;stroke-linecap:butt;stroke-linejoin:miter;stroke-opacity:1"
       d="m 371.92857,127.86218 0,-41.000001 -16.42857,0 21.92857,-19.14286 22.35714,19.14286 -15.85714,0 0,41.000001 z"
       id="path3766"
       inkscape:connector-curvature="0"
       sodipodi:nodetypes="cccccccc" />
    <path
       sodipodi:nodetypes="cccccccc"
       inkscape:connector-curvature="0"
       id="path3768"
       d="m 493.57142,238.07647 41,0 0,-16.42857 19.14286,21.92857 -19.14286,22.35714 0,-15.85714 -41,0 z"
       style="fill:#ffffff;fill-opacity:1;stroke:#c8c8c8;stroke-width:1px;stroke-linecap:butt;stroke-linejoin:miter;stroke-opacity:1" />
    <rect
       style="fill:none;stroke:#9f9f9f;stroke-width:3;stroke-miterlimit:4;stroke-opacity:1;stroke-dasharray:none"
       id="rect2993"
       width="287.14285"
       height="190.71428"
       x="228.54446"
       y="351.50504"
       rx="50"
       ry="50" />
    <path
       style="fill:none;stroke:#9f9f9f;stroke-width:2.5;stroke-linecap:butt;stroke-linejoin:miter;stroke-miterlimit:4;stroke-opacity:1;stroke-dasharray:none"
       d="m 429.25874,355.79076 0,182.85715"
       id="path3763"
       inkscape:connector-curvature="0" />
    <path
       style="fill:none;stroke:#9f9f9f;stroke-width:2.5;stroke-linecap:butt;stroke-linejoin:miter;stroke-miterlimit:4;stroke-opacity:1;stroke-dasharray:none"
       d="m 430.68731,448.79076 80,0"
       id="path3769"
       inkscape:connector-curvature="0" />
    <path
       style="fill:none;stroke:#9f9f9f;stroke-width:5;stroke-linecap:butt;stroke-linejoin:miter;stroke-miterlimit:4;stroke-opacity:1;stroke-dasharray:none"
       d="M 524.25874,449.50505 C 630.4963,483.75961 566.98,354.07007 645.68731,353.79076"
       id="path3771"
       inkscape:connector-curvature="0"
       sodipodi:nodetypes="cc" />
    <text
       xml:space="preserve"
       style="font-size:56px;font-style:normal;font-weight:normal;line-height:125%;letter-spacing:0px;word-spacing:0px;fill:#ffffff;fill-opacity:1;stroke:#969696;stroke-opacity:1;font-family:Sans"
       x="435.47302"
       y="413.57645"
       id="text3773"
       sodipodi:linespacing="125%"><tspan
         sodipodi:role="line"
         id="tspan3775"
         x="435.47302"
         y="413.57645"
         style="font-size:24px;font-weight:bold;line-height:125%;fill:#ffffff;fill-opacity:1;stroke:#969696;stroke-opacity:1;-inkscape-font-specification:Arial Bold;font-family:Arial;font-style:normal;font-stretch:normal;font-variant:normal">CLICK</tspan></text>
  </g>
</svg>
