<?xml version="1.0" encoding="UTF-8" standalone="no"?>
<!-- Created with Inkscape (http://www.inkscape.org/) -->

<svg
   xmlns:dc="http://purl.org/dc/elements/1.1/"
   xmlns:cc="http://creativecommons.org/ns#"
   xmlns:rdf="http://www.w3.org/1999/02/22-rdf-syntax-ns#"
   xmlns:svg="http://www.w3.org/2000/svg"
   xmlns="http://www.w3.org/2000/svg"
   xmlns:sodipodi="http://sodipodi.sourceforge.net/DTD/sodipodi-0.dtd"
   xmlns:inkscape="http://www.inkscape.org/namespaces/inkscape"
   version="1.1"
   width="285.67816"
   height="340.23126"
   id="svg2"
   inkscape:version="0.48.2 r9819"
   sodipodi:docname="littleguy_nosurf.svg">
  <sodipodi:namedview
     pagecolor="#ffffff"
     bordercolor="#666666"
     borderopacity="1"
     objecttolerance="10"
     gridtolerance="10"
     guidetolerance="10"
     inkscape:pageopacity="0"
     inkscape:pageshadow="2"
     inkscape:window-width="1036"
     inkscape:window-height="748"
     id="namedview30"
     showgrid="false"
     fit-margin-top="10"
     fit-margin-right="10"
     fit-margin-left="10"
     fit-margin-bottom="10"
     inkscape:zoom="0.83668523"
     inkscape:cx="194.17638"
     inkscape:cy="111.43853"
     inkscape:window-x="86"
     inkscape:window-y="79"
     inkscape:window-maximized="0"
     inkscape:current-layer="svg2" />
  <metadata
     id="metadata46">
    <rdf:RDF>
      <cc:Work
         rdf:about="">
        <dc:format>image/svg+xml</dc:format>
        <dc:type
           rdf:resource="http://purl.org/dc/dcmitype/StillImage" />
        <dc:title />
      </cc:Work>
    </rdf:RDF>
  </metadata>
  <defs
     id="defs4">
    <filter
       color-interpolation-filters="sRGB"
       id="gauss5">
      <feGaussianBlur
         stdDeviation="4"
         id="feGaussianBlur7" />
    </filter>
  </defs>
  <g
     transform="translate(-230.89658,-210.47741)"
     id="littleguy"
     style="stroke:#00ff00;stroke-width:0;stroke-opacity:0">
    <path
       d="m 249.50768,527.08286 -1.01015,-196.97975 c -0.21241,-41.42075 35.35345,-102.18078 116.16754,-102.0254 78.79785,0.1515 112.47733,66.4553 130.30968,151.52288 l -55.55839,-1e-5 0,100.00511 c 0,24.24366 -25.25708,49.93465 -54.54824,49.49747 z"
       transform="translate(2,2)"
       id="path28"
       style="fill:#666666;filter:url(#gauss5)"
       inkscape:connector-curvature="0" />
    <path
       d="m 249.50768,527.08286 -1.01015,-196.97975 c -0.21241,-41.42075 35.35345,-102.18078 116.16754,-102.0254 78.79785,0.1515 112.47733,66.4553 130.30968,151.52288 l -55.55839,-1e-5 0,100.00511 c 0,24.24366 -25.25708,49.93465 -54.54824,49.49747 z"
       id="path30"
       style="fill:#e21e23"
       inkscape:connector-curvature="0" />
    <g
       id="eye1">
      <path
         d="m 414.16256,324.54727 a 54.54824,56.063468 0 1 1 -109.09648,0 54.54824,56.063468 0 1 1 109.09648,0 z"
         transform="matrix(0.72222222,0,0,0.72222222,197.87766,85.690512)"
         id="path4044"
         style="fill:#ffd400"
         inkscape:connector-curvature="0" />
      <path
         d="m 479.28572,320.04074 a 21.071428,21.071428 0 1 1 -42.14285,0 21.071428,21.071428 0 1 1 42.14285,0 z"
         id="path4046"
         style="fill:#000000"
         inkscape:connector-curvature="0" />
      <path
         d="m 380.8275,320.00159 a 9.59645,9.0913735 0 1 1 -19.1929,0 9.59645,9.0913735 0 1 1 19.1929,0 z"
         transform="matrix(0.72222222,0,0,0.72222222,197.87766,88.60873)"
         id="path4048"
         style="fill:#ffffff"
         inkscape:connector-curvature="0" />
    </g>
    <path
       d="m 332.25368,408.30527 90.42426,-1.43056 c -6.80007,21.45848 -36.56264,64.37548 -68.88753,64.37548 -32.32489,0 -29.39467,-40.9423 -21.53673,-62.94492 z"
       id="mouth"
       style="fill:#fdfdfd;stroke-width:0"
       inkscape:connector-curvature="0" />
    <g
       id="eye2">
      <path
         d="m 416.18284,325.05234 a 55.558392,55.558392 0 1 1 -111.11678,0 55.558392,55.558392 0 1 1 111.11678,0 z"
         transform="translate(-2.0203076,-5.0507618)"
         id="path38"
         style="fill:#ffd400"
         inkscape:connector-curvature="0" />
      <path
         d="m 387.89858,321.01175 a 29.294425,29.294425 0 1 1 -58.58885,0 29.294425,29.294425 0 1 1 58.58885,0 z"
         transform="translate(1.0101524,-2.0203018)"
         id="path40"
         style="fill:#000000"
         inkscape:connector-curvature="0" />
      <path
         d="m 381.83766,323.03204 a 11.11168,11.11168 0 1 1 -22.22336,0 11.11168,11.11168 0 1 1 22.22336,0 z"
         transform="matrix(0.86363637,0,0,0.86363637,50.048465,39.504133)"
         id="path42"
         style="fill:#ffffff"
         inkscape:connector-curvature="0" />
    </g>
  </g>
</svg>
