<?xml version="1.0" encoding="UTF-8" standalone="no"?>
<!-- Created with Inkscape (http://www.inkscape.org/) -->

<svg
   xmlns:dc="http://purl.org/dc/elements/1.1/"
   xmlns:cc="http://creativecommons.org/ns#"
   xmlns:rdf="http://www.w3.org/1999/02/22-rdf-syntax-ns#"
   xmlns:svg="http://www.w3.org/2000/svg"
   xmlns="http://www.w3.org/2000/svg"
   xmlns:sodipodi="http://sodipodi.sourceforge.net/DTD/sodipodi-0.dtd"
   xmlns:inkscape="http://www.inkscape.org/namespaces/inkscape"
   version="1.1"
   id="svg2"
   inkscape:version="0.48.2 r9819"
   width="100%"
   height="100%"
   sodipodi:docname="littleguy_static_noshadow.svg">
  <defs
     id="defs3212" />
  <sodipodi:namedview
     pagecolor="#ffffff"
     bordercolor="#666666"
     borderopacity="1"
     objecttolerance="10"
     gridtolerance="10"
     guidetolerance="10"
     inkscape:pageopacity="0"
     inkscape:pageshadow="2"
     inkscape:window-width="618"
     inkscape:window-height="948"
     id="namedview3210"
     showgrid="true"
     inkscape:zoom="0.6"
     inkscape:cx="364.37655"
     inkscape:cy="526.18109"
     inkscape:window-x="640"
     inkscape:window-y="0"
     inkscape:window-maximized="0"
     inkscape:current-layer="svg2">
    <inkscape:grid
       type="xygrid"
       id="grid3557" />
  </sodipodi:namedview>
  <metadata
     id="metadata46">
    <rdf:RDF>
      <cc:Work
         rdf:about="">
        <dc:format>image/svg+xml</dc:format>
        <dc:type
           rdf:resource="http://purl.org/dc/dcmitype/StillImage" />
        <dc:title />
      </cc:Work>
    </rdf:RDF>
  </metadata>
  <path
     d="m 143.69767,607.96192 c 7.93094,44.97859 98.70768,26.14444 149.23003,26.54 75.97333,0.59485 152.3568,-14.1466 225.00311,-36.39101 67.44162,-20.65071 196.60734,-62.75951 191.98693,-88.96313 -4.6204,-26.20362 -141.52166,-19.62965 -212.42818,-15.86224 -74.64273,3.96594 -150.24896,15.02218 -220.59305,40.30015 -47.85639,17.19705 -141.12977,29.39765 -133.19884,74.37623 z"
     id="path13"
     style="fill:#1cbaed;stroke:#00ff00;stroke-width:0;stroke-opacity:0"
     inkscape:connector-curvature="0" />
  <g
     transform="matrix(0.17364818,0.98480775,-0.98480775,0.17364818,679.61887,110.89933)"
     id="redcircle"
     style="stroke:#00ff00;stroke-width:0;stroke-opacity:0">
    <path
       d="m 426.28437,187.16653 a 28.789347,28.789347 0 1 1 -57.57869,0 28.789347,28.789347 0 1 1 57.57869,0 z"
       transform="translate(1.0101525,-2.020305)"
       id="path16"
       style="fill:#ffffff"
       inkscape:connector-curvature="0" />
    <path
       d="m 416.18286,189.18683 a 20.70813,20.70813 0 1 1 -41.41626,0 20.70813,20.70813 0 1 1 41.41626,0 z"
       transform="translate(3.0304576,-4.0406102)"
       id="path18"
       style="fill:#e21e23"
       inkscape:connector-curvature="0" />
    <path
       d="m 409.11178,186.15637 a 11.616755,11.616755 0 1 1 -23.23351,0 11.616755,11.616755 0 1 1 23.23351,0 z"
       transform="translate(2.0203049,-1.0101525)"
       id="path20"
       style="fill:#000000"
       inkscape:connector-curvature="0" />
  </g>
  <g
     transform="matrix(0.17364818,0.98480775,-0.98480775,0.17364818,793.13059,90.40416)"
     id="blackcircle"
     style="stroke:#00ff00;stroke-width:0;stroke-opacity:0">
    <path
       d="m 428.30468,679.61591 a 29.294425,29.294425 0 1 1 -58.58885,0 29.294425,29.294425 0 1 1 58.58885,0 z"
       transform="translate(-1.0101525,-3.0304576)"
       id="path23"
       style="fill:#000000"
       inkscape:connector-curvature="0" />
    <path
       d="m 408.10163,663.95856 a 10.606605,10.606605 0 1 1 -21.21321,0 10.606605,10.606605 0 1 1 21.21321,0 z"
       id="path25"
       style="fill:#ffffff"
       inkscape:connector-curvature="0" />
  </g>
  <path
     d="m 249.43472,526.81273 -1.01015,-196.97975 c -0.21241,-41.42075 35.35345,-102.18078 116.16754,-102.0254 78.79785,0.1515 112.47733,66.4553 130.30968,151.52288 l -55.55839,-1e-5 0,100.00511 c 0,24.24366 -25.25708,49.93465 -54.54824,49.49747 z"
     id="path30"
     style="fill:#e21e23;stroke:#00ff00;stroke-width:0;stroke-opacity:0"
     inkscape:connector-curvature="0" />
  <g
     transform="translate(-0.07296,-0.27013)"
     id="eye1"
     style="stroke:#00ff00;stroke-width:0;stroke-opacity:0">
    <path
       d="m 414.16256,324.54727 a 54.54824,56.063468 0 1 1 -109.09648,0 54.54824,56.063468 0 1 1 109.09648,0 z"
       transform="matrix(0.72222222,0,0,0.72222222,197.87766,85.690512)"
       id="path4044"
       style="fill:#ffd400"
       inkscape:connector-curvature="0" />
    <path
       d="m 479.28572,320.04074 a 21.071428,21.071428 0 1 1 -42.14285,0 21.071428,21.071428 0 1 1 42.14285,0 z"
       id="path4046"
       style="fill:#000000"
       inkscape:connector-curvature="0" />
    <path
       d="m 380.8275,320.00159 a 9.59645,9.0913735 0 1 1 -19.1929,0 9.59645,9.0913735 0 1 1 19.1929,0 z"
       transform="matrix(0.72222222,0,0,0.72222222,197.87766,88.60873)"
       id="path4048"
       style="fill:#ffffff"
       inkscape:connector-curvature="0" />
  </g>
  <path
     d="m 332.18072,408.03514 90.42426,-1.43056 c -6.80007,21.45848 -36.56264,64.37548 -68.88753,64.37548 -32.32489,0 -29.39467,-40.9423 -21.53673,-62.94492 z"
     id="mouth"
     style="fill:#fdfdfd;stroke:#00ff00;stroke-width:0;stroke-opacity:0"
     inkscape:connector-curvature="0" />
  <g
     transform="translate(-0.07296,-0.27013)"
     id="eye2"
     style="stroke:#00ff00;stroke-width:0;stroke-opacity:0">
    <path
       d="m 416.18284,325.05234 a 55.558392,55.558392 0 1 1 -111.11678,0 55.558392,55.558392 0 1 1 111.11678,0 z"
       transform="translate(-2.0203076,-5.0507618)"
       id="path38"
       style="fill:#ffd400"
       inkscape:connector-curvature="0" />
    <path
       d="m 387.89858,321.01175 a 29.294425,29.294425 0 1 1 -58.58885,0 29.294425,29.294425 0 1 1 58.58885,0 z"
       transform="translate(1.0101524,-2.0203018)"
       id="path40"
       style="fill:#000000"
       inkscape:connector-curvature="0" />
    <path
       d="m 381.83766,323.03204 a 11.11168,11.11168 0 1 1 -22.22336,0 11.11168,11.11168 0 1 1 22.22336,0 z"
       transform="matrix(0.86363637,0,0,0.86363637,50.048465,39.504133)"
       id="path42"
       style="fill:#ffffff"
       inkscape:connector-curvature="0" />
  </g>
</svg>
